<?xml version="1.0" encoding="UTF-8"?>
<svg id="Ebene_2" data-name="Ebene 2" xmlns="http://www.w3.org/2000/svg" xmlns:xlink="http://www.w3.org/1999/xlink" viewBox="0 0 192.93 120.3">
  <defs>
    <style>
      .cls-1 {
        fill: url(#Unbenannter_Verlauf);
      }

      .cls-2 {
        fill: url(#Unbenannter_Verlauf_2);
      }

      .cls-3 {
        fill: url(#Unbenannter_Verlauf_15);
        stroke: url(#Unbenannter_Verlauf_16);
      }

      .cls-3, .cls-4, .cls-5, .cls-6, .cls-7, .cls-8 {
        stroke-miterlimit: 10;
        stroke-width: .5px;
      }

      .cls-4 {
        fill: url(#Unbenannter_Verlauf_13);
        stroke: url(#Unbenannter_Verlauf_14);
      }

      .cls-5 {
        fill: url(#Unbenannter_Verlauf_17);
        stroke: url(#Unbenannter_Verlauf_18);
      }

      .cls-6 {
        fill: url(#Unbenannter_Verlauf_6);
        stroke: url(#Unbenannter_Verlauf_7);
      }

      .cls-7 {
        fill: url(#Unbenannter_Verlauf_8);
        stroke: url(#Unbenannter_Verlauf_9);
      }

      .cls-8 {
        fill: url(#Unbenannter_Verlauf_4);
        stroke: url(#Unbenannter_Verlauf_5);
      }

      .cls-9 {
        fill: url(#Unbenannter_Verlauf_19);
      }

      .cls-10 {
        fill: url(#Unbenannter_Verlauf_10);
      }

      .cls-11 {
        fill: url(#Unbenannter_Verlauf_11);
      }
    </style>
    <radialGradient id="Unbenannter_Verlauf" data-name="Unbenannter Verlauf" cx="-183.76" cy="-70.37" fx="-183.76" fy="-70.37" r="29.2" gradientTransform="translate(700.71 -82.56) scale(3.29 -2.03)" gradientUnits="userSpaceOnUse">
      <stop offset="0" stop-color="#6805f2"/>
      <stop offset=".15" stop-color="#6a08f2" stop-opacity=".99"/>
      <stop offset=".29" stop-color="#7013f2" stop-opacity=".94"/>
      <stop offset=".41" stop-color="#7b25f3" stop-opacity=".87"/>
      <stop offset=".53" stop-color="#8b3ff5" stop-opacity=".77"/>
      <stop offset=".64" stop-color="#9f60f6" stop-opacity=".63"/>
      <stop offset=".76" stop-color="#b889f8" stop-opacity=".47"/>
      <stop offset=".87" stop-color="#d5bafb" stop-opacity=".28"/>
      <stop offset=".97" stop-color="#f6f0fe" stop-opacity=".06"/>
      <stop offset="1" stop-color="#fff" stop-opacity="0"/>
    </radialGradient>
    <radialGradient id="Unbenannter_Verlauf_2" data-name="Unbenannter Verlauf 2" cx="179.15" cy="286.12" fx="127.35" fy="286.12" r="51.81" gradientTransform="translate(-22.81 475.16) scale(.93 -1.45)" gradientUnits="userSpaceOnUse">
      <stop offset="0" stop-color="#6805f2"/>
      <stop offset=".37" stop-color="#6906f2"/>
      <stop offset=".51" stop-color="#6d0df2"/>
      <stop offset=".6" stop-color="#7419f3"/>
      <stop offset=".68" stop-color="#7e2af3"/>
      <stop offset=".75" stop-color="#8b40f5"/>
      <stop offset=".81" stop-color="#9c5bf6"/>
      <stop offset=".86" stop-color="#af7cf8"/>
      <stop offset=".91" stop-color="#c6a1fa"/>
      <stop offset=".96" stop-color="#e0ccfc"/>
      <stop offset="1" stop-color="#fbf9fe"/>
      <stop offset="1" stop-color="#fff"/>
    </radialGradient>
    <radialGradient id="Unbenannter_Verlauf_4" data-name="Unbenannter Verlauf 4" cx="158.67" cy="346.69" fx="118.44" fy="346.69" r="40.23" gradientTransform="translate(-22.81 708.46) scale(.93 -1.87)" gradientUnits="userSpaceOnUse">
      <stop offset="0" stop-color="#6805f2"/>
      <stop offset=".37" stop-color="#6906f2"/>
      <stop offset=".51" stop-color="#6d0df2"/>
      <stop offset=".6" stop-color="#7419f3"/>
      <stop offset=".68" stop-color="#7e2af3"/>
      <stop offset=".75" stop-color="#8b40f5"/>
      <stop offset=".81" stop-color="#9c5bf6"/>
      <stop offset=".86" stop-color="#af7cf8"/>
      <stop offset=".91" stop-color="#c6a1fa"/>
      <stop offset=".96" stop-color="#e0ccfc"/>
      <stop offset="1" stop-color="#fbf9fe"/>
      <stop offset="1" stop-color="#fff"/>
    </radialGradient>
    <radialGradient id="Unbenannter_Verlauf_5" data-name="Unbenannter Verlauf 5" cx="147.47" cy="62.21" fx="147.47" fy="62.21" r="43.77" gradientTransform="translate(0 122.36) scale(1 -1)" gradientUnits="userSpaceOnUse">
      <stop offset="0" stop-color="#6805f2"/>
      <stop offset="1" stop-color="#fff" stop-opacity="0"/>
    </radialGradient>
    <radialGradient id="Unbenannter_Verlauf_6" data-name="Unbenannter Verlauf 6" cx="149.86" cy="441.32" fx="127.92" fy="441.32" r="21.94" gradientTransform="translate(-22.81 1573.98) scale(.93 -3.43)" gradientUnits="userSpaceOnUse">
      <stop offset="0" stop-color="#6805f2"/>
      <stop offset=".37" stop-color="#6906f2"/>
      <stop offset=".51" stop-color="#6d0df2"/>
      <stop offset=".6" stop-color="#7419f3"/>
      <stop offset=".68" stop-color="#7e2af3"/>
      <stop offset=".75" stop-color="#8b40f5"/>
      <stop offset=".81" stop-color="#9c5bf6"/>
      <stop offset=".86" stop-color="#af7cf8"/>
      <stop offset=".91" stop-color="#c6a1fa"/>
      <stop offset=".96" stop-color="#e0ccfc"/>
      <stop offset="1" stop-color="#fbf9fe"/>
      <stop offset="1" stop-color="#fff"/>
    </radialGradient>
    <radialGradient id="Unbenannter_Verlauf_7" data-name="Unbenannter Verlauf 7" cx="126.64" cy="62.11" fx="126.64" fy="62.11" r="43.18" gradientTransform="translate(0 122.36) scale(1 -1)" gradientUnits="userSpaceOnUse">
      <stop offset="0" stop-color="#6805f2"/>
      <stop offset="1" stop-color="#fff" stop-opacity="0"/>
    </radialGradient>
    <radialGradient id="Unbenannter_Verlauf_8" data-name="Unbenannter Verlauf 8" cx="139.55" cy="498.58" fx="128.8" fy="498.58" r="10.75" gradientTransform="translate(-22.81 3515.43) scale(.93 -6.93)" gradientUnits="userSpaceOnUse">
      <stop offset="0" stop-color="#6805f2"/>
      <stop offset=".37" stop-color="#6906f2"/>
      <stop offset=".51" stop-color="#6d0df2"/>
      <stop offset=".6" stop-color="#7419f3"/>
      <stop offset=".68" stop-color="#7e2af3"/>
      <stop offset=".75" stop-color="#8b40f5"/>
      <stop offset=".81" stop-color="#9c5bf6"/>
      <stop offset=".86" stop-color="#af7cf8"/>
      <stop offset=".91" stop-color="#c6a1fa"/>
      <stop offset=".96" stop-color="#e0ccfc"/>
      <stop offset="1" stop-color="#fbf9fe"/>
      <stop offset="1" stop-color="#fff"/>
    </radialGradient>
    <radialGradient id="Unbenannter_Verlauf_9" data-name="Unbenannter Verlauf 9" cx="111.03" cy="62.2" fx="111.03" fy="62.2" r="42.65" gradientTransform="translate(0 122.36) scale(1 -1)" gradientUnits="userSpaceOnUse">
      <stop offset="0" stop-color="#6805f2"/>
      <stop offset="1" stop-color="#fff" stop-opacity="0"/>
    </radialGradient>
    <radialGradient id="Unbenannter_Verlauf_10" data-name="Unbenannter Verlauf 10" cx="131" cy="542.99" fx="131" fy="542.99" r="3.41" gradientTransform="translate(-22.81 18093) scale(.93 -33.21)" gradientUnits="userSpaceOnUse">
      <stop offset="0" stop-color="#6805f2"/>
      <stop offset=".37" stop-color="#6906f2"/>
      <stop offset=".51" stop-color="#6d0df2"/>
      <stop offset=".6" stop-color="#7419f3"/>
      <stop offset=".68" stop-color="#7e2af3"/>
      <stop offset=".75" stop-color="#8b40f5"/>
      <stop offset=".81" stop-color="#9c5bf6"/>
      <stop offset=".86" stop-color="#af7cf8"/>
      <stop offset=".91" stop-color="#c6a1fa"/>
      <stop offset=".96" stop-color="#e0ccfc"/>
      <stop offset="1" stop-color="#fbf9fe"/>
      <stop offset="1" stop-color="#fff"/>
    </radialGradient>
    <radialGradient id="Unbenannter_Verlauf_11" data-name="Unbenannter Verlauf 11" cx="76.66" cy="286.43" fx="128.23" fy="286.43" r="51.57" gradientTransform="translate(-22.81 475.64) scale(.93 -1.45)" gradientUnits="userSpaceOnUse">
      <stop offset="0" stop-color="#6805f2"/>
      <stop offset=".37" stop-color="#6906f2"/>
      <stop offset=".51" stop-color="#6d0df2"/>
      <stop offset=".6" stop-color="#7419f3"/>
      <stop offset=".68" stop-color="#7e2af3"/>
      <stop offset=".75" stop-color="#8b40f5"/>
      <stop offset=".81" stop-color="#9c5bf6"/>
      <stop offset=".86" stop-color="#af7cf8"/>
      <stop offset=".91" stop-color="#c6a1fa"/>
      <stop offset=".96" stop-color="#e0ccfc"/>
      <stop offset="1" stop-color="#fbf9fe"/>
      <stop offset="1" stop-color="#fff"/>
    </radialGradient>
    <radialGradient id="Unbenannter_Verlauf_13" data-name="Unbenannter Verlauf 13" cx="92.45" cy="372.07" fx="127.71" fy="372.07" r="35.26" gradientTransform="translate(-22.81 852.66) scale(.93 -2.13)" gradientUnits="userSpaceOnUse">
      <stop offset="0" stop-color="#6805f2"/>
      <stop offset=".37" stop-color="#6906f2"/>
      <stop offset=".51" stop-color="#6d0df2"/>
      <stop offset=".6" stop-color="#7419f3"/>
      <stop offset=".68" stop-color="#7e2af3"/>
      <stop offset=".75" stop-color="#8b40f5"/>
      <stop offset=".81" stop-color="#9c5bf6"/>
      <stop offset=".86" stop-color="#af7cf8"/>
      <stop offset=".91" stop-color="#c6a1fa"/>
      <stop offset=".96" stop-color="#e0ccfc"/>
      <stop offset="1" stop-color="#fbf9fe"/>
      <stop offset="1" stop-color="#fff"/>
    </radialGradient>
    <radialGradient id="Unbenannter_Verlauf_14" data-name="Unbenannter Verlauf 14" cx="45.46" cy="62.21" fx="45.46" fy="62.21" r="43.78" gradientTransform="translate(0 122.36) scale(1 -1)" gradientUnits="userSpaceOnUse">
      <stop offset="0" stop-color="#6805f2"/>
      <stop offset="1" stop-color="#fff" stop-opacity="0"/>
    </radialGradient>
    <radialGradient id="Unbenannter_Verlauf_15" data-name="Unbenannter Verlauf 15" cx="106.15" cy="440.97" fx="128.14" fy="440.97" r="21.99" gradientTransform="translate(-22.81 1568.31) scale(.93 -3.42)" gradientUnits="userSpaceOnUse">
      <stop offset="0" stop-color="#6805f2"/>
      <stop offset=".37" stop-color="#6906f2"/>
      <stop offset=".51" stop-color="#6d0df2"/>
      <stop offset=".6" stop-color="#7419f3"/>
      <stop offset=".68" stop-color="#7e2af3"/>
      <stop offset=".75" stop-color="#8b40f5"/>
      <stop offset=".81" stop-color="#9c5bf6"/>
      <stop offset=".86" stop-color="#af7cf8"/>
      <stop offset=".91" stop-color="#c6a1fa"/>
      <stop offset=".96" stop-color="#e0ccfc"/>
      <stop offset="1" stop-color="#fbf9fe"/>
      <stop offset="1" stop-color="#fff"/>
    </radialGradient>
    <radialGradient id="Unbenannter_Verlauf_16" data-name="Unbenannter Verlauf 16" cx="66.29" cy="62.31" fx="66.29" fy="62.31" r="43.04" gradientTransform="translate(0 122.36) scale(1 -1)" gradientUnits="userSpaceOnUse">
      <stop offset="0" stop-color="#6805f2"/>
      <stop offset="1" stop-color="#fff" stop-opacity="0"/>
    </radialGradient>
    <radialGradient id="Unbenannter_Verlauf_17" data-name="Unbenannter Verlauf 17" cx="117.14" cy="496.39" fx="128.31" fy="496.39" r="11.19" gradientTransform="translate(-22.81 3371.07) scale(.93 -6.67)" gradientUnits="userSpaceOnUse">
      <stop offset="0" stop-color="#6805f2"/>
      <stop offset=".37" stop-color="#6906f2"/>
      <stop offset=".51" stop-color="#6d0df2"/>
      <stop offset=".6" stop-color="#7419f3"/>
      <stop offset=".68" stop-color="#7e2af3"/>
      <stop offset=".75" stop-color="#8b40f5"/>
      <stop offset=".81" stop-color="#9c5bf6"/>
      <stop offset=".86" stop-color="#af7cf8"/>
      <stop offset=".91" stop-color="#c6a1fa"/>
      <stop offset=".96" stop-color="#e0ccfc"/>
      <stop offset="1" stop-color="#fbf9fe"/>
      <stop offset="1" stop-color="#fff"/>
    </radialGradient>
    <radialGradient id="Unbenannter_Verlauf_18" data-name="Unbenannter Verlauf 18" cx="81.9" cy="62.23" fx="81.9" fy="62.23" r="42.63" gradientTransform="translate(0 122.36) scale(1 -1)" gradientUnits="userSpaceOnUse">
      <stop offset="0" stop-color="#6805f2"/>
      <stop offset="1" stop-color="#fff" stop-opacity="0"/>
    </radialGradient>
    <radialGradient id="Unbenannter_Verlauf_19" data-name="Unbenannter Verlauf 19" cx="125.06" cy="542.77" fx="125.06" fy="542.77" r="2.97" gradientTransform="translate(-22.81 17738.1) scale(.93 -32.57)" gradientUnits="userSpaceOnUse">
      <stop offset="0" stop-color="#6805f2"/>
      <stop offset=".37" stop-color="#6906f2"/>
      <stop offset=".51" stop-color="#6d0df2"/>
      <stop offset=".6" stop-color="#7419f3"/>
      <stop offset=".68" stop-color="#7e2af3"/>
      <stop offset=".75" stop-color="#8b40f5"/>
      <stop offset=".81" stop-color="#9c5bf6"/>
      <stop offset=".86" stop-color="#af7cf8"/>
      <stop offset=".91" stop-color="#c6a1fa"/>
      <stop offset=".96" stop-color="#e0ccfc"/>
      <stop offset="1" stop-color="#fbf9fe"/>
      <stop offset="1" stop-color="#fff"/>
    </radialGradient>
  </defs>
  <g id="Ebene_1-2" data-name="Ebene 1-2">
    <g id="strokes">
      <ellipse class="cls-1" cx="96.6" cy="60.15" rx="96.18" ry="59.72"/>
      <path class="cls-2" d="M152.25,6.97l.88-.95.58-.62,1.08-.9,1.08-.9.18-.15,1.35-.83,1.16-.71,1.73-.67.95-.37,2.14-.34.68-.11h.72l2.24.16.74.05,1.86.59,1.22.39,1.4.81,1.4.81.34.2,1.05.91,1.05.91,1.05.91.8.96.8.96.8.96.68.82.62.99.62.99.62.99.62.99.47.75.48,1,.48,1,.48,1,.48,1,.48,1,.32.68.36,1.01.36,1.01.36,1.01.36,1.01.36,1.01.36,1.01.2.56.27,1.02.27,1.02.27,1.02.27,1.02.27,1.02.27,1.02.27,1.02.09.35.18,1.02.18,1.02.18,1.02.18,1.02.18,1.02.18,1.02.18,1.02.18,1.01.11,1.03.11,1.03.11,1.03.11,1.03.11,1.03.11,1.03.11,1.03.11,1.03.05.46.04,1.03.04,1.03.04,1.03.04,1.03.04,1.03.04,1.03.04,1.03.04,1.03.02.7-.04,1.03-.04,1.03-.04,1.03-.04,1.03-.04,1.03-.04,1.03-.04,1.03-.04,1.03-.02.7-.11,1.03-.11,1.03-.11,1.03-.11,1.03-.11,1.03-.11,1.03-.11,1.03-.11,1.03-.05.46-.18,1.02-.18,1.02-.18,1.02-.18,1.02-.18,1.02-.18,1.02-.18,1.02-.18,1.01-.27,1.02-.27,1.02-.27,1.02-.27,1.02-.27,1.02-.27,1.02-.27,1.02-.09.35-.36,1.01-.36,1.01-.36,1.01-.36,1.01-.36,1.01-.36,1.01-.2.56-.48,1-.48,1-.48,1-.48,1-.48,1-.32.68-.62.99-.62.99-.62.99-.62.99-.47.75-.8.96-.8.96-.8.96-.68.82-1.05.91-1.05.91-1.05.91-1.4.81-1.4.81-.34.2-1.86.59-1.22.39-2.24.16-.74.05h-.72l-2.14-.34-.68-.11-1.73-.67-.95-.37-1.35-.83-1.16-.71-1.08-.9-1.08-.9-.18-.15-.88-.95-.58-.62"/>
      <path class="cls-8" d="M132.33,11.21l.37-.87.52-1,.52-1,.32-.62.63-.99.63-.99.22-.35.78-.96.78-.96.03-.03,1.02-.92.69-.62,1.42-.8.41-.23,1.93-.45h.72l2.05.22,1.59.73.53.24,1.07.9,1.08.91.76.97.76.97.63.8.46.8.22.39.57.99.57.99.3.52.43,1.01.43,1.01.43,1.01.43,1.01.29.67.33,1.02.33,1.02.33,1.02.33,1.02.33,1.02.2.62.25,1.02.25,1.02.25,1.02.25,1.02.25,1.02.25,1.02.13.52.18,1.02.18,1.02.18,1.02.18,1.02.18,1.02.18,1.02.18,1.02.06.32.13,1.02.13,1.02.13,1.02.13,1.02.13,1.02.13,1.02.13,1.02.12,1,.07,1.03.07,1.03.07,1.03.07,1.03.07,1.03.07,1.03.07,1.03.07,1.03.03.45.02,1.03.02,1.03.02,1.03.02,1.03.02,1.03.02,1.03.02,1.03.02,1.03.02.7-.02,1.03-.02,1.03-.02,1.03-.02,1.03-.02,1.03-.02,1.03-.02,1.03-.02,1.03-.02.7-.07,1.03-.07,1.03-.07,1.03-.07,1.03-.07,1.03-.07,1.03-.07,1.03-.07,1.03-.03.45-.13,1.02-.13,1.02-.13,1.02-.13,1.02-.13,1.02-.13,1.02-.13,1.02-.12,1-.18,1.02-.18,1.02-.18,1.02-.18,1.02-.18,1.02-.18,1.02-.18,1.02-.06.32-.25,1.02-.25,1.02-.25,1.02-.25,1.02-.25,1.02-.25,1.02-.13.52-.33,1.02-.33,1.02-.33,1.02-.33,1.02-.33,1.02-.2.62-.43,1.01-.43,1.01-.43,1.01-.43,1.01-.29.67-.57.99-.57.99-.3.52-.22.39-.46.8-.76.97-.76.97-.63.8-1.07.9-1.08.91-1.59.73-.53.24-2.05.22h-.72l-1.93-.45-1.42-.8-.41-.23-1.02-.92-.69-.62-.78-.96-.78-.96-.03-.03-.63-.99-.63-.99-.22-.35-.52-1-.52-1-.32-.62-.37-.87"/>
      <path class="cls-6" d="M115.92,23.77l.12-.86.17-1.02.17-1.02.17-1.02.05-.31.2-1.02.2-1.02.2-1.02.03-.17.23-1.02.23-1.02.23-1.03.27-1.02.27-1.02.22-.83.32-1.02.32-1.02.19-.59.39-1.01.39-1.01.12-.3.5-1,.48-.96.67-.98.38-.55,1-.92.12-.11,1.18-.45h.72l1.27.22,1.18.88.13.1.72.97.62.84.49,1,.49,1,.35.73.36,1.01.36,1.01.36,1.01.23.66.27,1.02.08.32.21.79.27,1.02.27,1.02.14.54.21,1.02.21,1.02.21,1.02.21,1.02.21,1.02.12.59.16,1.02.16,1.02.16,1.02.16,1.02.16,1.02.16,1.02.08.5.11,1.03.11,1.03.11,1.03.11,1.03.11,1.03.11,1.03.11,1.03.03.31.08,1.03.08,1.03.08,1.03.08,1.03.08,1.03.08,1.03.08,1.03.08.99.05,1.03.05,1.03.05,1.03.05,1.03.05,1.03.05,1.03.05,1.03.05,1.03.02.45v1.03l.03,1.03v1.03l.03,1.03.02,1.03.02,1.03v1.03l.03,1.03v.7h0v1.03s-.03,1.03-.03,1.03v1.03l-.03,1.03-.02,1.03-.02,1.03v1.03l-.03,1.03v.7l-.06,1.03-.05,1.03-.05,1.03-.05,1.03-.05,1.03-.05,1.03-.05,1.03-.05,1.03-.02.45-.08,1.03-.08,1.03-.08,1.03-.08,1.03-.08,1.03-.08,1.03-.08,1.03-.08.99-.11,1.03-.11,1.03-.11,1.03-.11,1.03-.11,1.03-.11,1.03-.11,1.03-.03.31-.16,1.02-.16,1.02-.16,1.02-.16,1.02-.16,1.02-.16,1.02-.08.5-.21,1.02-.21,1.02-.21,1.02-.21,1.02-.21,1.02-.12.59-.27,1.02-.27,1.02-.14.54-.21.79-.27,1.02-.08.32-.36,1.01-.36,1.01-.36,1.01-.23.66-.49,1-.49,1-.35.73-.72.97-.62.84-1.18.88-.13.1-1.27.22h-.72l-1.18-.45-1-.92-.12-.11-.67-.98-.38-.55-.5-1-.48-.96-.39-1.01-.39-1.01-.12-.3-.32-1.02-.32-1.02-.19-.59-.27-1.02-.27-1.02-.22-.83-.23-1.02-.23-1.02-.23-1.03-.2-1.02-.2-1.02-.2-1.02-.03-.17-.17-1.02-.17-1.02-.17-1.02-.05-.31-.12-.86"/>
      <path class="cls-7" d="M104.91,63.99v-8.73l.02-1.03v-1.03l.02-.75.02-1.03.02-1.03.02-1.03v-.74l.03-1.03.02-1.03.02-1.03.02-.73.03-1.03.03-1.03.03-1.03.02-.7.04-1.03.04-1.03.04-1.03.02-.67.04-1.03.04-1.03.04-1.03.03-.62.05-1.03.05-1.03.05-1.03.03-.57.06-1.03.06-1.03.06-1.03.03-.5.07-1.03.07-1.03.07-1.03.03-.41.08-1.03.08-1.03.08-1.03.02-.3.1-1.03.1-1.03.1-1.03.02-.17.11-1.03.11-1.03.11-1.02.13-1.02.13-1.02.11-.82.16-1.02.16-1.02.09-.57.2-1.02.2-1.02.05-.27.25-1.02.23-.94.34-1.01.17-.52.53-1,.02-.03.58-.45h.72l.64.22.66.98.38,1.01.3.8.25,1.02.25,1.02.17.69.18,1.02.18,1.02.18,1.02.11.63.14,1.02.14,1.02.14,1.02.14,1.02.08.61.1,1.03.1,1.03.1,1.03.1,1.03.1,1.03.06.57.08,1.03.08,1.03.08,1.03.03.42.08,1.03.08,1.03v.17l.08.93.06,1.03.06,1.03.06,1.03.06,1.03.06,1.03.06,1.03.06,1.03.02.3.04,1.03.04,1.03.04,1.03.04,1.03.04,1.03.04,1.03.04,1.03.04.99.02,1.03.02,1.03.02,1.03.02,1.03.02,1.03.02,1.03.02,1.03.02,1.03v.45l.02,1.03v1.03l.02,1.03v1.03l.02,1.03v1.03l.02,1.03v1.73s.01,1.03.01,1.03l-.02,1.03v1.03l-.02,1.03v1.03l-.02,1.03v1.03l-.02,1.03v.7l-.03,1.03-.02,1.03-.02,1.03-.02,1.03-.02,1.03-.02,1.03-.02,1.03-.02,1.03v.45l-.05,1.03-.04,1.03-.04,1.03-.04,1.03-.04,1.03-.04,1.03-.04,1.03-.04.99-.06,1.03-.06,1.03-.06,1.03-.06,1.03-.06,1.03-.06,1.03-.06,1.03-.02.3-.07.93-.08,1.03-.08,1.03v.17l-.09,1.03-.08,1.03-.08,1.03-.03.42-.1,1.03-.1,1.03-.1,1.03-.1,1.03-.1,1.03-.06.57-.14,1.02-.14,1.02-.14,1.02-.14,1.02-.08.61-.18,1.02-.18,1.02-.18,1.02-.11.63-.25,1.02-.25,1.02-.17.69-.38,1.01-.3.8-.66.98-.64.22h-.72l-.58-.45-.53-1-.02-.03-.34-1.01-.18-.52-.25-1.02-.23-.94-.2-1.02-.2-1.02-.05-.27-.16-1.02-.16-1.02-.09-.57-.13-1.02-.13-1.02-.11-.82-.11-1.03-.11-1.03-.11-1.02-.1-1.03-.1-1.03-.1-1.03-.02-.17-.08-1.03-.08-1.03-.08-1.03-.02-.3-.07-1.03-.07-1.03-.07-1.03-.03-.41-.06-1.03-.06-1.03-.06-1.03-.03-.5-.05-1.03-.05-1.03-.05-1.03-.03-.57-.04-1.03-.04-1.03-.04-1.03-.03-.62-.04-1.03-.04-1.03-.04-1.03-.02-.67-.03-1.03-.03-1.03-.03-1.03-.02-.7-.02-1.03-.02-1.03-.02-1.03-.02-.73-.02-1.03-.02-1.03-.02-1.03v-.74l-.02-1.03v-1.03l-.02-1.03v-.75"/>
      <path class="cls-10" d="M98.41,63.99v-17.43s.01-1.03.01-1.03v-2.78s.01-1.03.01-1.03v-.7s.01-1.03.01-1.03l.02-1.03v-1.7s.01-1.03.01-1.03l.02-1.03v-1.03l.02-.62v-1.03l.02-1.03v-1.03l.02-.57v-1.03l.03-1.03v-1.03l.02-.5.02-1.03.02-1.03.02-1.03v-.41l.03-1.03.02-1.03.02-1.03v-.3l.03-1.03.02-1.03.02-1.03v-.16l.03-1.03.03-1.03.03-1.02.03-1.03.03-1.03.02-.82.04-1.03.04-1.03.02-.57.05-1.03.05-1.03v-.27l.07-1.03.05-.93.08-1.03.04-.51.13-1.03.13-.45h.72l.17.22.18.98.1,1.03.08.79.07,1.03.07,1.03.04.68.05,1.03.05,1.03.05,1.03.03.62.04,1.03.04,1.03.04,1.03.04,1.03.02.6.03,1.03.03,1.03.03,1.03.03,1.03.03,1.03.02.57.02,1.03.02,1.03.02,1.03.02,1.03.02,1.03.02,1.03v.48l.03,1.03.02,1.03.02,1.03.02,1.03.02,1.03.02,1.03.02,1.03v.3l.02,1.03v1.03l.02,1.03v1.03l.02,1.03v1.03l.02,1.03v.99l.02,1.03v2.06s.01,1.03.01,1.03v1.03s.01,1.03.01,1.03v1.03s.01,1.03.01,1.03v20.39s-.01,1.03-.01,1.03v1.03s-.01,1.03-.01,1.03v1.03s-.01,1.03-.01,1.03v1.03s-.01.45-.01.45v1.03s-.01,1.03-.01,1.03l-.02,1.03v1.03l-.02,1.03v1.03l-.02,1.03v.99l-.03,1.03-.02,1.03-.02,1.03-.02,1.03-.02,1.03-.02,1.03-.02,1.03v.3l-.03,1.03-.02,1.03-.02,1.03-.02,1.03-.02,1.03-.02,1.03v.48l-.04,1.03-.03,1.03-.03,1.03-.03,1.03-.03,1.03-.02.57-.04,1.03-.04,1.03-.04,1.03-.04,1.03-.02.6-.05,1.03-.05,1.03-.05,1.03-.03.62-.07,1.03-.07,1.03-.04.68-.1,1.03-.08.79-.18.98-.17.22h-.72l-.13-.45-.13-1.03-.08-1.03-.04-.51-.06-1.03-.05-.93-.05-1.03-.05-1.03v-.27l-.05-1.03-.04-1.03-.02-.57-.03-1.03-.03-1.03-.02-.82-.03-1.03-.03-1.03-.03-1.02-.02-1.03-.02-1.03-.02-1.03v-.16l-.02-1.03-.02-1.03-.02-1.03v-.3l-.02-1.03-.02-1.03-.02-1.03v-.41l-.02-1.03v-1.03l-.03-1.03v-.5l-.02-1.03v-1.03l-.02-1.03v-.57l-.02-1.03v-1.03l-.02-1.03v-1.65s-.01-1.03-.01-1.03l-.02-1.03v-1.7s-.01-1.03-.01-1.03v-1.03s-.01-.7-.01-.7v-3.09s-.01-.72-.01-.72v-7.67"/>
      <path class="cls-11" d="M40.68,113.32l-.88.95-.58.62-1.08.9-1.08.9-.18.15-1.35.83-1.16.71-1.73.67-.95.37-2.14.34-.68.11h-.72l-2.24-.16-.74-.05-1.86-.59-1.22-.39-1.4-.81-1.4-.81-.34-.2-1.05-.91-1.05-.91-1.05-.91-.8-.96-.8-.96-.8-.96-.68-.82-.62-.99-.62-.99-.62-.99-.62-.99-.47-.75-.48-1-.48-1-.48-1-.48-1-.48-1-.32-.68-.36-1.01-.36-1.01-.36-1.01-.36-1.01-.36-1.01-.36-1.01-.2-.56-.27-1.02-.27-1.02-.27-1.02-.27-1.02-.27-1.02-.27-1.02-.27-1.02-.09-.35-.18-1.02-.18-1.02-.18-1.02-.18-1.02-.18-1.02-.18-1.02-.18-1.02-.18-1.01-.11-1.03-.11-1.03-.11-1.03-.11-1.03-.11-1.03-.11-1.03-.11-1.03-.11-1.03-.05-.46-.04-1.03-.04-1.03-.04-1.03-.04-1.03-.04-1.03-.04-1.03-.04-1.03-.04-1.03-.02-.7.04-1.03.04-1.03.04-1.03.04-1.03.04-1.03.04-1.03.04-1.03.04-1.03.02-.7.11-1.03.11-1.03.11-1.03.11-1.03.11-1.03.11-1.03.11-1.03.11-1.03.05-.46.18-1.02.18-1.02.18-1.02.18-1.02.18-1.02.18-1.02.18-1.02.18-1.01.27-1.02.27-1.02.27-1.02.27-1.02.27-1.02.27-1.02.27-1.02.09-.35.36-1.01.36-1.01.36-1.01.36-1.01.36-1.01.36-1.01.2-.56.48-1,.48-1,.48-1,.48-1,.48-1,.32-.68.62-.99.62-.99.62-.99.62-.99.47-.75.8-.96.8-.96.8-.96.68-.82,1.05-.91,1.05-.91,1.05-.91,1.4-.81,1.4-.81.34-.2,1.86-.59,1.22-.39,2.24-.16.74-.05h.72l2.14.34.68.11,1.73.67.95.37,1.35.83,1.16.71,1.08.9,1.08.9.18.15.88.95.58.62"/>
      <path class="cls-4" d="M60.6,109.09l-.37.87-.52,1-.52,1-.32.62-.63.99-.63.99-.22.35-.78.96-.78.96-.03.03-1.02.92-.69.62-1.42.8-.41.23-1.93.45h-.72l-2.05-.22-1.59-.73-.53-.24-1.07-.9-1.08-.91-.76-.97-.76-.97-.63-.8-.46-.8-.22-.39-.57-.99-.57-.99-.3-.52-.43-1.01-.43-1.01-.43-1.01-.43-1.01-.29-.67-.33-1.02-.33-1.02-.33-1.02-.33-1.02-.33-1.02-.2-.62-.25-1.02-.25-1.02-.25-1.02-.25-1.02-.25-1.02-.25-1.02-.13-.52-.18-1.02-.18-1.02-.18-1.02-.18-1.02-.18-1.02-.18-1.02-.18-1.02-.06-.32-.13-1.02-.13-1.02-.13-1.02-.13-1.02-.13-1.02-.13-1.02-.13-1.02-.12-1-.07-1.03-.07-1.03-.07-1.03-.07-1.03-.07-1.03-.07-1.03-.07-1.03-.07-1.03-.03-.45-.02-1.03-.02-1.03-.02-1.03-.02-1.03-.02-1.03-.02-1.03-.02-1.03-.02-1.03-.02-.7.02-1.03.02-1.03.02-1.03.02-1.03.02-1.03.02-1.03.02-1.03.02-1.03.02-.7.07-1.03.07-1.03.07-1.03.07-1.03.07-1.03.07-1.03.07-1.03.07-1.03.03-.45.13-1.02.13-1.02.13-1.02.13-1.02.13-1.02.13-1.02.13-1.02.12-1,.18-1.02.18-1.02.18-1.02.18-1.02.18-1.02.18-1.02.18-1.02.06-.32.25-1.02.25-1.02.25-1.02.25-1.02.25-1.02.25-1.02.13-.52.33-1.02.33-1.02.33-1.02.33-1.02.33-1.02.2-.62.43-1.01.43-1.01.43-1.01.43-1.01.29-.67.57-.99.57-.99.3-.52.22-.39.46-.8.76-.97.76-.97.63-.8,1.07-.9,1.08-.91,1.59-.73.53-.24,2.05-.22h.72l1.93.45,1.42.8.41.23,1.02.92.69.62.78.96.78.96.03.03.63.99.63.99.22.35.52,1,.52,1,.32.62.37.87"/>
      <path class="cls-3" d="M77.01,96.53l-.12.86-.17,1.02-.17,1.02-.17,1.02-.05.31-.2,1.02-.2,1.02-.2,1.02-.03.17-.23,1.02-.23,1.02-.23,1.03-.27,1.02-.27,1.02-.22.83-.32,1.02-.32,1.02-.19.59-.39,1.01-.39,1.01-.12.3-.5,1-.48.96-.67.98-.38.55-1,.92-.12.11-1.18.45h-.72l-1.27-.22-1.18-.88-.13-.1-.72-.97-.62-.84-.49-1-.49-1-.35-.73-.36-1.01-.36-1.01-.36-1.01-.23-.66-.27-1.02-.08-.32-.21-.79-.27-1.02-.27-1.02-.14-.54-.21-1.02-.21-1.02-.21-1.02-.21-1.02-.21-1.02-.12-.59-.16-1.02-.16-1.02-.16-1.02-.16-1.02-.16-1.02-.16-1.02-.08-.5-.11-1.03-.11-1.03-.11-1.03-.11-1.03-.11-1.03-.11-1.03-.11-1.03-.03-.31-.08-1.03-.08-1.03-.08-1.03-.08-1.03-.08-1.03-.08-1.03-.08-1.03-.08-.99-.05-1.03-.05-1.03-.05-1.03-.05-1.03-.05-1.03-.05-1.03-.05-1.03-.05-1.03-.02-.45v-1.03l-.03-1.03v-1.03l-.03-1.03-.02-1.03v-1.03l-.03-1.03-.02-1.03v-1.73l.02-1.03v-1.03l.03-1.03.02-1.03v-1.03l.03-1.03.02-1.03v-.7l.06-1.03.05-1.03.05-1.03.05-1.03.05-1.03.05-1.03.05-1.03.05-1.03.02-.45.08-1.03.08-1.03.08-1.03.08-1.03.08-1.03.08-1.03.08-1.03.08-.99.11-1.03.11-1.03.11-1.03.11-1.03.11-1.03.11-1.03.11-1.03.03-.31.16-1.02.16-1.02.16-1.02.16-1.02.16-1.02.16-1.02.08-.5.21-1.02.21-1.02.21-1.02.21-1.02.21-1.02.12-.59.27-1.02.27-1.02.14-.54.21-.79.27-1.02.08-.32.36-1.01.36-1.01.36-1.01.23-.66.49-1,.49-1,.35-.73.72-.97.62-.84,1.18-.88.13-.1,1.27-.22h.72l1.18.45,1,.92.12.11.67.98.38.55.5,1,.48.96.39,1.01.39,1.01.12.3.32,1.02.32,1.02.19.59.27,1.02.27,1.02.22.83.23,1.02.23,1.02.23,1.03.2,1.02.2,1.02.2,1.02.03.17.17,1.02.17,1.02.17,1.02.05.31.12.86"/>
      <path class="cls-5" d="M88.03,60.15v4.88l-.02,1.03v1.03l-.02.75-.02,1.03-.02,1.03-.02,1.03v.74l-.03,1.03-.02,1.03-.02,1.03-.02.73-.03,1.03-.03,1.03-.03,1.03-.02.7-.04,1.03-.04,1.03-.04,1.03-.02.67-.04,1.03-.04,1.03-.04,1.03-.03.62-.05,1.03-.05,1.03-.05,1.03-.03.57-.06,1.03-.06,1.03-.06,1.03-.03.5-.07,1.03-.07,1.03-.07,1.03-.03.41-.08,1.03-.08,1.03-.08,1.03-.02.3-.1,1.03-.1,1.03-.1,1.03-.02.17-.11,1.03-.11,1.03-.11,1.02-.13,1.02-.13,1.02-.11.82-.16,1.02-.16,1.02-.09.57-.2,1.02-.2,1.02-.05.27-.25,1.02-.23.94-.34,1.01-.17.52-.53,1-.02.03-.58.45h-.72l-.64-.22-.66-.98-.38-1.01-.3-.8-.25-1.02-.25-1.02-.17-.69-.18-1.02-.18-1.02-.18-1.02-.11-.63-.14-1.02-.14-1.02-.14-1.02-.14-1.02-.08-.61-.1-1.03-.1-1.03-.1-1.03-.1-1.03-.1-1.03-.06-.57-.08-1.03-.08-1.03-.08-1.03-.03-.42-.08-1.03-.08-1.03v-.17l-.08-.93-.06-1.03-.06-1.03-.06-1.03-.06-1.03-.06-1.03-.06-1.03-.06-1.03-.02-.3-.04-1.03-.04-1.03-.04-1.03-.04-1.03-.04-1.03-.04-1.03-.04-1.03-.04-.99-.02-1.03-.02-1.03-.02-1.03-.02-1.03-.02-1.03-.02-1.03-.02-1.03-.02-1.03v-.45l-.02-1.03v-1.03l-.02-1.03v-1.03l-.02-1.03v-1.03l-.02-1.03v-1.73s-.01-1.03-.01-1.03l.02-1.03v-1.03l.02-1.03v-1.03l.02-1.03v-1.03l.02-1.03v-.7l.03-1.03.02-1.03.02-1.03.02-1.03.02-1.03.02-1.03.02-1.03.02-1.03v-.45l.05-1.03.04-1.03.04-1.03.04-1.03.04-1.03.04-1.03.04-1.03.04-.99.06-1.03.06-1.03.06-1.03.06-1.03.06-1.03.06-1.03.06-1.03.02-.3.07-.93.08-1.03.08-1.03v-.17l.09-1.03.08-1.03.08-1.03.03-.42.1-1.03.1-1.03.1-1.03.1-1.03.1-1.03.06-.57.14-1.02.14-1.02.14-1.02.14-1.02.08-.61.18-1.02.18-1.02.18-1.02.11-.63.25-1.02.25-1.02.17-.69.38-1.01.3-.8.66-.98.64-.22h.72l.58.45.53,1,.02.03.34,1.01.18.52.25,1.02.23.94.2,1.02.2,1.02.05.27.16,1.02.16,1.02.09.57.13,1.02.13,1.02.11.82.11,1.03.11,1.03.11,1.02.1,1.03.1,1.03.1,1.03.02.17.08,1.03.08,1.03.08,1.03.02.3.07,1.03.07,1.03.07,1.03.03.41.06,1.03.06,1.03.06,1.03.03.5.05,1.03.05,1.03.05,1.03.03.57.04,1.03.04,1.03.04,1.03.03.62.04,1.03.04,1.03.04,1.03.02.67.03,1.03.03,1.03.03,1.03.02.7.02,1.03.02,1.03.02,1.03.02.73.02,1.03.02,1.03.02,1.03v.74l.02,1.03v1.03l.02,1.03v4.6"/>
      <path class="cls-9" d="M94.52,60.15v13.58s-.01,1.03-.01,1.03v2.78s-.01,1.03-.01,1.03v.7s-.01,1.03-.01,1.03l-.02,1.03v1.7s-.01,1.03-.01,1.03l-.02,1.03v1.03l-.02.62v1.03l-.02,1.03v1.03l-.02.57v1.03l-.03,1.03v1.03l-.02.5-.02,1.03-.02,1.03-.02,1.03v.41l-.03,1.03-.02,1.03-.02,1.03v.3l-.03,1.03-.02,1.03-.02,1.03v.16l-.03,1.03-.03,1.03-.03,1.02-.03,1.03-.03,1.03-.02.82-.04,1.03-.04,1.03-.02.57-.05,1.03-.05,1.03v.27l-.07,1.03-.05.93-.08,1.03-.04.51-.13,1.03-.13.45h-.72l-.17-.22-.18-.98-.1-1.03-.08-.79-.07-1.03-.07-1.03-.04-.68-.05-1.03-.05-1.03-.05-1.03-.03-.62-.04-1.03-.04-1.03-.04-1.03-.04-1.03-.02-.6-.03-1.03-.03-1.03-.03-1.03-.03-1.03-.03-1.03-.02-.57-.02-1.03-.02-1.03-.02-1.03-.02-1.03-.02-1.03-.02-1.03v-.48l-.03-1.03-.02-1.03-.02-1.03-.02-1.03-.02-1.03-.02-1.03-.02-1.03v-.3l-.02-1.03v-1.03l-.02-1.03v-1.03l-.02-1.03v-1.03l-.02-1.03v-.99l-.02-1.03v-2.06s-.01-1.03-.01-1.03v-1.03s-.01-1.03-.01-1.03v-1.03s-.01-1.03-.01-1.03v-20.39s.01-1.03.01-1.03v-1.03s.01-1.03.01-1.03v-1.03s.01-1.03.01-1.03v-1.03s.01-.45.01-.45v-1.03s.01-1.03.01-1.03l.02-1.03v-1.03l.02-1.03v-1.03l.02-1.03v-.99l.03-1.03.02-1.03.02-1.03.02-1.03.02-1.03.02-1.03.02-1.03v-.3l.03-1.03.02-1.03.02-1.03.02-1.03.02-1.03.02-1.03v-.48l.04-1.03.03-1.03.03-1.03.03-1.03.03-1.03.02-.57.04-1.03.04-1.03.04-1.03.04-1.03.02-.6.05-1.03.05-1.03.05-1.03.03-.62.07-1.03.07-1.03.04-.68.1-1.03.08-.79.18-.98.17-.22h.72l.13.45.13,1.03.08,1.03.04.51.06,1.03.05.93.05,1.03.05,1.03v.27l.05,1.03.04,1.03.02.57.03,1.03.03,1.03.02.82.03,1.03.03,1.03.03,1.02.02,1.03.02,1.03.02,1.03v.16l.02,1.03.02,1.03.02,1.03v.3l.02,1.03.02,1.03.02,1.03v.41l.02,1.03v1.03l.03,1.03v.5l.02,1.03v1.03l.02,1.03v.57l.02,1.03v1.03l.02,1.03v1.65s.01,1.03.01,1.03l.02,1.03v1.7s.01,1.03.01,1.03v1.03s.01.7.01.7v3.09s.01.72.01.72v11.52"/>
    </g>
  </g>
</svg>