<?xml version="1.0" encoding="UTF-8"?>
<svg id="Ebene_1" data-name="Ebene 1" xmlns="http://www.w3.org/2000/svg" viewBox="0 0 193.93 120.85">
  <defs>
    <style>
      .cls-1 {
        fill: none;
        stroke: #000;
        stroke-linejoin: round;
      }
    </style>
  </defs>
  <g id="ViewLayer_LineSet" data-name="ViewLayer LineSet">
    <g id="ViewLayer_LineSet-2" data-name="ViewLayer LineSet">
      <g id="strokes">
        <path class="cls-1" d="M41.15,7.07l-.88-.95-.58-.63-1.08-.91-1.08-.91-.18-.15-1.35-.83-1.16-.71-1.73-.67-.95-.37-2.14-.34-.68-.11h-.72l-2.24.17-.75.05-1.86.59-1.23.39-1.4.81-1.4.81-.34.2-1.05.91-1.05.91-1.05.91-.8.96-.8.96-.8.96-.68.82-.62.99-.62.99-.62.99-.62.99-.47.75-.48,1.01-.48,1.01-.48,1.01-.48,1.01-.48,1.01-.32.68-.36,1.02-.36,1.02-.36,1.02-.36,1.02-.36,1.02-.36,1.02-.2.56-.27,1.02-.27,1.02-.27,1.02-.27,1.02-.27,1.02-.27,1.02-.27,1.02-.09.35-.18,1.03-.18,1.03-.18,1.03-.18,1.03-.18,1.03-.18,1.03-.18,1.03-.18,1.01-.11,1.03-.11,1.03-.11,1.03-.11,1.03-.11,1.03-.11,1.03-.11,1.03-.11,1.03-.05.46-.04,1.03-.04,1.03-.04,1.03-.04,1.03-.04,1.03-.04,1.03-.04,1.03-.04,1.03-.02.71.04,1.03.04,1.03.04,1.03.04,1.03.04,1.03.04,1.03.04,1.03.04,1.03.02.71.11,1.03.11,1.03.11,1.03.11,1.03.11,1.03.11,1.03.11,1.03.11,1.03.05.46.18,1.03.18,1.03.18,1.03.18,1.03.18,1.03.18,1.03.18,1.03.18,1.01.27,1.02.27,1.02.27,1.02.27,1.02.27,1.02.27,1.02.27,1.02.09.35.36,1.02.36,1.02.36,1.02.36,1.02.36,1.02.36,1.02.2.56.48,1.01.48,1.01.48,1.01.48,1.01.48,1.01.32.68.62.99.62.99.62.99.62.99.47.75.8.96.8.96.8.96.68.82,1.05.91,1.05.91,1.05.91,1.4.81,1.4.81.34.2,1.86.59,1.23.39,2.24.17.75.05h.72l2.14-.34.68-.11,1.73-.67.95-.37,1.35-.83,1.16-.71,1.08-.91,1.08-.91.18-.15.88-.95.58-.63"/>
        <path class="cls-1" d="M61.08,11.32l-.37-.87-.52-1-.52-1-.32-.62-.63-.99-.63-.99-.22-.35-.78-.97-.78-.97-.03-.03-1.02-.92-.69-.62-1.42-.8-.41-.23-1.93-.45h-.72l-2.05.22-1.59.74-.53.24-1.07.91-1.08.91-.76.97-.76.97-.63.8-.46.8-.22.39-.57,1-.57,1-.3.52-.43,1.01-.43,1.01-.43,1.01-.43,1.01-.29.68-.33,1.02-.33,1.02-.33,1.02-.33,1.02-.33,1.02-.2.62-.25,1.02-.25,1.02-.25,1.02-.25,1.02-.25,1.02-.25,1.02-.13.52-.18,1.03-.18,1.03-.18,1.03-.18,1.03-.18,1.03-.18,1.03-.18,1.03-.06.32-.13,1.03-.13,1.03-.13,1.03-.13,1.03-.13,1.03-.13,1.03-.13,1.03-.12,1-.07,1.03-.07,1.03-.07,1.03-.07,1.03-.07,1.03-.07,1.03-.07,1.03-.07,1.03-.03.45-.02,1.03-.02,1.03-.02,1.03-.02,1.03-.02,1.03-.02,1.03-.02,1.03-.02,1.03-.02.71.02,1.03.02,1.03.02,1.03.02,1.03.02,1.03.02,1.03.02,1.03.02,1.03.02.71.07,1.03.07,1.03.07,1.03.07,1.03.07,1.03.07,1.03.07,1.03.07,1.03.03.45.13,1.03.13,1.03.13,1.03.13,1.03.13,1.03.13,1.03.13,1.03.12,1,.18,1.03.18,1.03.18,1.03.18,1.03.18,1.03.18,1.03.18,1.03.06.32.25,1.02.25,1.02.25,1.02.25,1.02.25,1.02.25,1.02.13.52.33,1.02.33,1.02.33,1.02.33,1.02.33,1.02.2.62.43,1.01.43,1.01.43,1.01.43,1.01.29.68.57,1,.57,1,.3.52.22.39.46.8.76.97.76.97.63.8,1.07.91,1.08.91,1.59.74.53.24,2.05.22h.72l1.93-.45,1.42-.8.41-.23,1.02-.92.69-.62.78-.97.78-.97.03-.03.63-.99.63-.99.22-.35.52-1,.52-1,.32-.62.37-.87"/>
        <path class="cls-1" d="M77.5,23.92l-.12-.87-.17-1.03-.17-1.03-.17-1.03-.05-.31-.2-1.03-.2-1.03-.2-1.03-.03-.17-.23-1.02-.23-1.02-.23-1.04-.27-1.02-.27-1.02-.22-.83-.32-1.02-.32-1.02-.19-.59-.39-1.01-.39-1.01-.12-.3-.5-1-.48-.96-.67-.98-.38-.55-1-.93-.12-.11-1.18-.45h-.72l-1.27.22-1.18.88-.13.1-.72.98-.62.84-.49,1.01-.49,1.01-.35.73-.36,1.02-.36,1.02-.36,1.02-.23.66-.27,1.02-.08.32-.21.79-.27,1.02-.27,1.02-.14.54-.21,1.03-.21,1.03-.21,1.03-.21,1.03-.21,1.03-.12.59-.16,1.03-.16,1.03-.16,1.03-.16,1.03-.16,1.03-.16,1.03-.08.5-.11,1.03-.11,1.03-.11,1.03-.11,1.03-.11,1.03-.11,1.03-.11,1.03-.03.31-.08,1.03-.08,1.03-.08,1.03-.08,1.03-.08,1.03-.08,1.03-.08,1.03-.08.99-.05,1.03-.05,1.03-.05,1.03-.05,1.03-.05,1.03-.05,1.03-.05,1.03-.05,1.03-.02.45v1.03s-.03,1.03-.03,1.03v1.03s-.03,1.03-.03,1.03l-.02,1.03-.02,1.03v1.03s-.03,1.03-.03,1.03v.71s-.01,0-.01,0h0s.01,1.03.01,1.03l.02,1.03v1.03s.03,1.03.03,1.03l.02,1.03.02,1.03v1.03s.03,1.03.03,1.03v.71s.06,1.03.06,1.03l.05,1.03.05,1.03.05,1.03.05,1.03.05,1.03.05,1.03.05,1.03.02.45.08,1.03.08,1.03.08,1.03.08,1.03.08,1.03.08,1.03.08,1.03.08.99.11,1.03.11,1.03.11,1.03.11,1.03.11,1.03.11,1.03.11,1.03.03.31.16,1.03.16,1.03.16,1.03.16,1.03.16,1.03.16,1.03.08.5.21,1.03.21,1.03.21,1.03.21,1.03.21,1.03.12.59.27,1.02.27,1.02.14.54.21.79.27,1.02.08.32.36,1.02.36,1.02.36,1.02.23.66.49,1.01.49,1.01.35.73.72.98.62.84,1.18.88.13.1,1.27.22h.72l1.18-.45,1-.93.12-.11.67-.98.38-.55.5-1,.48-.96.39-1.01.39-1.01.12-.3.32-1.02.32-1.02.19-.59.27-1.02.27-1.02.22-.83.23-1.02.23-1.02.23-1.04.2-1.03.2-1.03.2-1.03.03-.17.17-1.03.17-1.03.17-1.03.05-.31.12-.87"/>
        <path class="cls-1" d="M88.51,64.28v-1.03s0-1.03,0-1.03v-1.03s0-.76,0-.76v-1.03s0-1.03,0-1.03v-1.03s0-.76,0-.76v-1.03s-.02-1.03-.02-1.03v-1.03s-.02-.76-.02-.76l-.02-1.03-.02-1.03-.02-1.03v-.74s-.03-1.03-.03-1.03l-.02-1.03-.02-1.03-.02-.73-.03-1.03-.03-1.03-.03-1.03-.02-.7-.04-1.03-.04-1.03-.04-1.03-.02-.67-.04-1.03-.04-1.03-.04-1.03-.03-.63-.05-1.03-.05-1.03-.05-1.03-.03-.57-.06-1.03-.06-1.03-.06-1.03-.03-.5-.07-1.03-.07-1.03-.07-1.03-.03-.41-.08-1.03-.08-1.03-.08-1.03-.02-.3-.1-1.03-.1-1.03-.1-1.03-.02-.17-.11-1.03-.11-1.03-.11-1.03-.13-1.03-.13-1.03-.11-.82-.16-1.03-.16-1.03-.09-.57-.2-1.03-.2-1.03-.05-.27-.25-1.02-.23-.94-.34-1.02-.18-.52-.53-1-.02-.03-.58-.45h-.72l-.64.22-.66.98-.38,1.02-.3.81-.25,1.02-.25,1.02-.17.69-.18,1.03-.18,1.03-.18,1.03-.11.64-.14,1.03-.14,1.03-.14,1.03-.14,1.03-.08.61-.1,1.03-.1,1.03-.1,1.03-.1,1.03-.1,1.03-.06.57-.08,1.03-.08,1.03-.08,1.03-.03.42-.08,1.03-.08,1.03v.17s-.08.93-.08.93l-.06,1.03-.06,1.03-.06,1.03-.06,1.03-.06,1.03-.06,1.03-.06,1.03-.02.3-.04,1.03-.04,1.03-.04,1.03-.04,1.03-.04,1.03-.04,1.03-.04,1.03-.04.99-.02,1.03-.02,1.03-.02,1.03-.02,1.03-.02,1.03-.02,1.03-.02,1.03-.02,1.03v.45s-.02,1.03-.02,1.03v1.03s-.02,1.03-.02,1.03v1.03s-.02,1.03-.02,1.03v1.03s-.02,1.03-.02,1.03v1.03s-.01.71-.01.71v1.03s.02,1.03.02,1.03v1.03s.02,1.03.02,1.03v1.03s.02,1.03.02,1.03v1.03s.02,1.03.02,1.03v.71s.03,1.03.03,1.03l.02,1.03.02,1.03.02,1.03.02,1.03.02,1.03.02,1.03.02,1.03v.45s.05,1.03.05,1.03l.04,1.03.04,1.03.04,1.03.04,1.03.04,1.03.04,1.03.04.99.06,1.03.06,1.03.06,1.03.06,1.03.06,1.03.06,1.03.06,1.03.02.3.07.93.08,1.03.08,1.03v.17s.09,1.03.09,1.03l.08,1.03.08,1.03.03.42.1,1.03.1,1.03.1,1.03.1,1.03.1,1.03.06.57.14,1.03.14,1.03.14,1.03.14,1.03.08.61.18,1.03.18,1.03.18,1.03.11.64.25,1.02.25,1.02.17.69.38,1.02.3.81.66.98.64.22h.72l.58-.45.53-1,.02-.03.34-1.02.18-.52.25-1.02.23-.94.2-1.03.2-1.03.05-.27.16-1.03.16-1.03.09-.57.13-1.03.13-1.03.11-.82.11-1.03.11-1.03.11-1.03.1-1.03.1-1.03.1-1.03.02-.17.08-1.03.08-1.03.08-1.03.02-.3.07-1.03.07-1.03.07-1.03.03-.41.06-1.03.06-1.03.06-1.03.03-.5.05-1.03.05-1.03.05-1.03.03-.57.04-1.03.04-1.03.04-1.03.03-.63.04-1.03.04-1.03.04-1.03.02-.67.03-1.03.03-1.03.03-1.03.02-.7.02-1.03.02-1.03.02-1.03.02-.73.02-1.03.02-1.03.02-1.03v-.75s.02-1.03.02-1.03v-1.03s.02-1.03.02-1.03v-.76"/>
        <path class="cls-1" d="M95.01,64.28v-1.03s0-1.03,0-1.03v-1.03s0-.76,0-.76v-1.03s0-1.03,0-1.03v-1.03s0-.76,0-.76v-1.03s0-1.03,0-1.03v-1.03s0-.76,0-.76v-1.03s0-1.03,0-1.03v-1.03s0-.74,0-.74v-1.03s-.01-1.03-.01-1.03v-1.03s0-.73,0-.73v-1.03s-.01-1.03-.01-1.03v-1.03s-.01-.7-.01-.7v-1.03s-.02-1.03-.02-1.03v-1.03s-.01-.67-.01-.67v-1.03s-.02-1.03-.02-1.03v-1.03s-.02-.63-.02-.63v-1.03s-.02-1.03-.02-1.03v-1.03s-.02-.57-.02-.57v-1.03s-.03-1.03-.03-1.03v-1.03s-.02-.5-.02-.5l-.02-1.03-.02-1.03-.02-1.03v-.41s-.03-1.03-.03-1.03l-.02-1.03-.02-1.03v-.3s-.03-1.03-.03-1.03l-.02-1.03-.02-1.03v-.16s-.03-1.03-.03-1.03l-.03-1.03-.03-1.02-.03-1.03-.03-1.03-.02-.82-.04-1.03-.04-1.03-.02-.57-.05-1.03-.05-1.03v-.27s-.07-1.03-.07-1.03l-.05-.94-.08-1.03-.04-.51-.13-1.04-.13-.45h-.72l-.17.22-.18.98-.1,1.03-.08.79-.07,1.03-.07,1.03-.04.68-.05,1.03-.05,1.03-.05,1.03-.03.63-.04,1.03-.04,1.03-.04,1.03-.04,1.03-.02.6-.03,1.03-.03,1.03-.03,1.03-.03,1.03-.03,1.03-.02.57-.02,1.03-.02,1.03-.02,1.03-.02,1.03-.02,1.03-.02,1.03v.49s-.03,1.03-.03,1.03l-.02,1.03-.02,1.03-.02,1.03-.02,1.03-.02,1.03-.02,1.03v.3s-.02,1.03-.02,1.03v1.03s-.02,1.03-.02,1.03v1.03s-.02,1.03-.02,1.03v1.03s-.02,1.03-.02,1.03v.99s-.02,1.03-.02,1.03v1.03s-.01,1.03-.01,1.03v1.03s-.01,1.03-.01,1.03v1.03s-.01,1.03-.01,1.03v1.03s0,.45,0,.45v1.03s0,1.03,0,1.03v1.03s0,1.03,0,1.03v1.03s0,1.03,0,1.03v1.03s0,1.03,0,1.03v.71s0,1.03,0,1.03v1.03s0,1.03,0,1.03v1.03s0,1.03,0,1.03v1.03s0,1.03,0,1.03v1.03s0,.71,0,.71v1.03s.01,1.03.01,1.03v1.03s.01,1.03.01,1.03v1.03s.01,1.03.01,1.03v1.03s.01,1.03.01,1.03v.45s.01,1.03.01,1.03v1.03s.02,1.03.02,1.03v1.03s.02,1.03.02,1.03v1.03s.02,1.03.02,1.03v.99s.03,1.03.03,1.03l.02,1.03.02,1.03.02,1.03.02,1.03.02,1.03.02,1.03v.3s.03,1.03.03,1.03l.02,1.03.02,1.03.02,1.03.02,1.03.02,1.03v.49s.04,1.03.04,1.03l.03,1.03.03,1.03.03,1.03.03,1.03.02.57.04,1.03.04,1.03.04,1.03.04,1.03.02.6.05,1.03.05,1.03.05,1.03.03.63.07,1.03.07,1.03.04.68.1,1.03.08.79.18.98.17.22h.72l.13-.45.13-1.04.08-1.03.04-.51.06-1.03.05-.94.05-1.03.05-1.03v-.27s.05-1.03.05-1.03l.04-1.03.02-.57.03-1.03.03-1.03.02-.82.03-1.03.03-1.03.03-1.02.02-1.03.02-1.03.02-1.03v-.16s.02-1.03.02-1.03l.02-1.03.02-1.03v-.3s.02-1.03.02-1.03l.02-1.03.02-1.03v-.41s.02-1.03.02-1.03v-1.03s.03-1.03.03-1.03v-.5s.02-1.03.02-1.03v-1.03s.02-1.03.02-1.03v-.57s.02-1.03.02-1.03v-1.03s.02-1.03.02-1.03v-.63s.01-1.03.01-1.03v-1.03s.02-1.03.02-1.03v-.67s.01-1.03.01-1.03v-1.03s.01-1.03.01-1.03v-.7s0-1.03,0-1.03v-1.03s.01-1.03.01-1.03v-.73s0-1.03,0-1.03v-1.03s0-1.03,0-1.03v-.74s0-1.03,0-1.03v-1.03s0-1.03,0-1.03v-.76"/>
        <path class="cls-1" d="M98.91,60.42v1.03s0,1.03,0,1.03v1.03s0,.76,0,.76v1.03s0,1.03,0,1.03v1.03s0,.76,0,.76v1.03s0,1.03,0,1.03v1.03s0,.74,0,.74v1.03s.01,1.03.01,1.03v1.03s0,.73,0,.73v1.03s.01,1.03.01,1.03v1.03s.01.7.01.7v1.03s.02,1.03.02,1.03v1.03s.01.67.01.67v1.03s.02,1.03.02,1.03v1.03s.02.63.02.63v1.03s.02,1.03.02,1.03v1.03s.02.57.02.57v1.03s.03,1.03.03,1.03v1.03s.02.5.02.5l.02,1.03.02,1.03.02,1.03v.41s.03,1.03.03,1.03l.02,1.03.02,1.03v.3s.03,1.03.03,1.03l.02,1.03.02,1.03v.16s.03,1.03.03,1.03l.03,1.03.03,1.02.03,1.03.03,1.03.02.82.04,1.03.04,1.03.02.57.05,1.03.05,1.03v.27s.07,1.03.07,1.03l.05.94.08,1.03.04.51.13,1.04.13.45h.72l.17-.22.18-.98.1-1.03.08-.79.07-1.03.07-1.03.04-.68.05-1.03.05-1.03.05-1.03.03-.63.04-1.03.04-1.03.04-1.03.04-1.03.02-.6.03-1.03.03-1.03.03-1.03.03-1.03.03-1.03.02-.57.02-1.03.02-1.03.02-1.03.02-1.03.02-1.03.02-1.03v-.49s.03-1.03.03-1.03l.02-1.03.02-1.03.02-1.03.02-1.03.02-1.03.02-1.03v-.3s.02-1.03.02-1.03v-1.03s.02-1.03.02-1.03v-1.03s.02-1.03.02-1.03v-1.03s.02-1.03.02-1.03v-.99s.02-1.03.02-1.03v-1.03s.01-1.03.01-1.03v-1.03s.01-1.03.01-1.03v-1.03s.01-1.03.01-1.03v-1.03s0-.45,0-.45v-1.03s0-1.03,0-1.03v-1.03s0-1.03,0-1.03v-1.03s0-1.03,0-1.03v-1.03s0-1.03,0-1.03v-.71s0-1.03,0-1.03v-1.03s0-1.03,0-1.03v-1.03s0-1.03,0-1.03v-1.03s0-1.03,0-1.03v-1.03s0-.71,0-.71v-1.03s-.01-1.03-.01-1.03v-1.03s-.01-1.03-.01-1.03v-1.03s-.01-1.03-.01-1.03v-1.03s-.01-1.03-.01-1.03v-.45s-.01-1.03-.01-1.03v-1.03s-.02-1.03-.02-1.03v-1.03s-.02-1.03-.02-1.03v-1.03s-.02-1.03-.02-1.03v-.99s-.03-1.03-.03-1.03l-.02-1.03-.02-1.03-.02-1.03-.02-1.03-.02-1.03-.02-1.03v-.3s-.03-1.03-.03-1.03l-.02-1.03-.02-1.03-.02-1.03-.02-1.03-.02-1.03v-.49s-.04-1.03-.04-1.03l-.03-1.03-.03-1.03-.03-1.03-.03-1.03-.02-.57-.04-1.03-.04-1.03-.04-1.03-.04-1.03-.02-.6-.05-1.03-.05-1.03-.05-1.03-.03-.63-.07-1.03-.07-1.03-.04-.68-.1-1.03-.08-.79-.18-.98-.17-.22h-.72l-.13.45-.13,1.04-.08,1.03-.04.51-.06,1.03-.05.94-.05,1.03-.05,1.03v.27s-.05,1.03-.05,1.03l-.04,1.03-.02.57-.03,1.03-.03,1.03-.02.82-.03,1.03-.03,1.03-.03,1.02-.02,1.03-.02,1.03-.02,1.03v.16s-.02,1.03-.02,1.03l-.02,1.03-.02,1.03v.3s-.02,1.03-.02,1.03l-.02,1.03-.02,1.03v.41s-.02,1.03-.02,1.03v1.03s-.03,1.03-.03,1.03v.5s-.02,1.03-.02,1.03v1.03s-.02,1.03-.02,1.03v.57s-.02,1.03-.02,1.03v1.03s-.02,1.03-.02,1.03v.63s-.01,1.03-.01,1.03v1.03s-.02,1.03-.02,1.03v.67s-.01,1.03-.01,1.03v1.03s-.01,1.03-.01,1.03v.7s0,1.03,0,1.03v1.03s-.01,1.03-.01,1.03v.73s0,1.03,0,1.03v1.03s0,1.03,0,1.03v.74s0,1.03,0,1.03v1.03s0,1.03,0,1.03v.76s0,1.03,0,1.03v1.03s0,1.03,0,1.03v.76"/>
        <path class="cls-1" d="M105.41,60.42v1.03s0,1.03,0,1.03v1.03s0,.76,0,.76v1.03s.02,1.03.02,1.03v1.03s.02.76.02.76l.02,1.03.02,1.03.02,1.03v.74s.03,1.03.03,1.03l.02,1.03.02,1.03.02.73.03,1.03.03,1.03.03,1.03.02.7.04,1.03.04,1.03.04,1.03.02.67.04,1.03.04,1.03.04,1.03.03.63.05,1.03.05,1.03.05,1.03.03.57.06,1.03.06,1.03.06,1.03.03.5.07,1.03.07,1.03.07,1.03.03.41.08,1.03.08,1.03.08,1.03.02.3.1,1.03.1,1.03.1,1.03.02.17.11,1.03.11,1.03.11,1.03.13,1.03.13,1.03.11.82.16,1.03.16,1.03.09.57.2,1.03.2,1.03.05.27.25,1.02.23.94.34,1.02.17.52.53,1,.02.03.58.45h.72l.64-.22.66-.98.38-1.02.3-.81.25-1.02.25-1.02.17-.69.18-1.03.18-1.03.18-1.03.11-.64.14-1.03.14-1.03.14-1.03.14-1.03.08-.61.1-1.03.1-1.03.1-1.03.1-1.03.1-1.03.06-.57.08-1.03.08-1.03.08-1.03.03-.42.08-1.03.08-1.03v-.17s.08-.93.08-.93l.06-1.03.06-1.03.06-1.03.06-1.03.06-1.03.06-1.03.06-1.03.02-.3.04-1.03.04-1.03.04-1.03.04-1.03.04-1.03.04-1.03.04-1.03.04-.99.02-1.03.02-1.03.02-1.03.02-1.03.02-1.03.02-1.03.02-1.03.02-1.03v-.45s.02-1.03.02-1.03v-1.03s.02-1.03.02-1.03v-1.03s.02-1.03.02-1.03v-1.03s.02-1.03.02-1.03v-1.03s.01-.71.01-.71v-1.03s-.02-1.03-.02-1.03v-1.03s-.02-1.03-.02-1.03v-1.03s-.02-1.03-.02-1.03v-1.03s-.02-1.03-.02-1.03v-.71s-.03-1.03-.03-1.03l-.02-1.03-.02-1.03-.02-1.03-.02-1.03-.02-1.03-.02-1.03-.02-1.03v-.45s-.05-1.03-.05-1.03l-.04-1.03-.04-1.03-.04-1.03-.04-1.03-.04-1.03-.04-1.03-.04-.99-.06-1.03-.06-1.03-.06-1.03-.06-1.03-.06-1.03-.06-1.03-.06-1.03-.02-.3-.07-.93-.08-1.03-.08-1.03v-.17s-.09-1.03-.09-1.03l-.08-1.03-.08-1.03-.03-.42-.1-1.03-.1-1.03-.1-1.03-.1-1.03-.1-1.03-.06-.57-.14-1.03-.14-1.03-.14-1.03-.14-1.03-.08-.61-.18-1.03-.18-1.03-.18-1.03-.11-.64-.25-1.02-.25-1.02-.17-.69-.38-1.02-.3-.81-.66-.98-.64-.22h-.72l-.58.45-.53,1-.02.03-.34,1.02-.18.52-.25,1.02-.23.94-.2,1.03-.2,1.03-.05.27-.16,1.03-.16,1.03-.09.57-.13,1.03-.13,1.03-.11.82-.11,1.03-.11,1.03-.11,1.03-.1,1.03-.1,1.03-.1,1.03-.02.17-.08,1.03-.08,1.03-.08,1.03-.02.3-.07,1.03-.07,1.03-.07,1.03-.03.41-.06,1.03-.06,1.03-.06,1.03-.03.5-.05,1.03-.05,1.03-.05,1.03-.03.57-.04,1.03-.04,1.03-.04,1.03-.03.63-.04,1.03-.04,1.03-.04,1.03-.02.67-.03,1.03-.03,1.03-.03,1.03-.02.7-.02,1.03-.02,1.03-.02,1.03-.02.73-.02,1.03-.02,1.03-.02,1.03v.75s-.02,1.03-.02,1.03v1.03s-.02,1.03-.02,1.03v.76s-.01,1.03-.01,1.03v1.03s0,1.03,0,1.03v.76"/>
        <path class="cls-1" d="M116.43,96.93l.12.87.17,1.03.17,1.03.17,1.03.05.31.2,1.03.2,1.03.2,1.03.03.17.23,1.02.23,1.02.23,1.04.27,1.02.27,1.02.22.83.32,1.02.32,1.02.19.59.39,1.01.39,1.01.12.3.5,1,.48.96.67.98.38.55,1,.93.12.11,1.18.45h.72l1.27-.22,1.18-.88.13-.1.72-.98.62-.84.49-1.01.49-1.01.35-.73.36-1.02.36-1.02.36-1.02.23-.66.27-1.02.08-.32.21-.79.27-1.02.27-1.02.14-.54.21-1.03.21-1.03.21-1.03.21-1.03.21-1.03.12-.59.16-1.03.16-1.03.16-1.03.16-1.03.16-1.03.16-1.03.08-.5.11-1.03.11-1.03.11-1.03.11-1.03.11-1.03.11-1.03.11-1.03.03-.31.08-1.03.08-1.03.08-1.03.08-1.03.08-1.03.08-1.03.08-1.03.08-.99.05-1.03.05-1.03.05-1.03.05-1.03.05-1.03.05-1.03.05-1.03.05-1.03.02-.45v-1.03s.03-1.03.03-1.03v-1.03s.03-1.03.03-1.03l.02-1.03v-1.03s.03-1.03.03-1.03l.02-1.03v-.71s0-1.03,0-1.03l-.02-1.03-.02-1.03-.02-1.03-.02-1.03-.02-1.03v-1.03s-.03-1.03-.03-1.03v-.71s-.06-1.03-.06-1.03l-.05-1.03-.05-1.03-.05-1.03-.05-1.03-.05-1.03-.05-1.03-.05-1.03-.02-.45-.08-1.03-.08-1.03-.08-1.03-.08-1.03-.08-1.03-.08-1.03-.08-1.03-.08-.99-.11-1.03-.11-1.03-.11-1.03-.11-1.03-.11-1.03-.11-1.03-.11-1.03-.03-.31-.16-1.03-.16-1.03-.16-1.03-.16-1.03-.16-1.03-.16-1.03-.08-.5-.21-1.03-.21-1.03-.21-1.03-.21-1.03-.21-1.03-.12-.59-.27-1.02-.27-1.02-.14-.54-.21-.79-.27-1.02-.08-.32-.36-1.02-.36-1.02-.36-1.02-.23-.66-.49-1.01-.49-1.01-.35-.73-.72-.98-.62-.84-1.18-.88-.13-.1-1.27-.22h-.72l-1.18.45-1,.93-.12.11-.67.98-.38.55-.5,1-.48.96-.39,1.01-.39,1.01-.12.3-.32,1.02-.32,1.02-.19.59-.27,1.02-.27,1.02-.22.83-.23,1.02-.23,1.02-.23,1.04-.2,1.03-.2,1.03-.2,1.03-.03.17-.17,1.03-.17,1.03-.17,1.03-.05.31-.12.87"/>
        <path class="cls-1" d="M132.85,109.53l.37.87.52,1,.52,1,.32.62.63.99.63.99.22.35.78.97.78.97.03.03,1.02.92.69.62,1.42.8.41.23,1.93.45h.72l2.05-.22,1.59-.74.53-.24,1.07-.91,1.08-.91.76-.97.76-.97.63-.8.46-.8.22-.39.57-1,.57-1,.3-.52.43-1.01.43-1.01.43-1.01.43-1.01.29-.68.33-1.02.33-1.02.33-1.02.33-1.02.33-1.02.2-.62.25-1.02.25-1.02.25-1.02.25-1.02.25-1.02.25-1.02.13-.52.18-1.03.18-1.03.18-1.03.18-1.03.18-1.03.18-1.03.18-1.03.06-.32.13-1.03.13-1.03.13-1.03.13-1.03.13-1.03.13-1.03.13-1.03.12-1,.07-1.03.07-1.03.07-1.03.07-1.03.07-1.03.07-1.03.07-1.03.07-1.03.03-.45.02-1.03.02-1.03.02-1.03.02-1.03.02-1.03.02-1.03.02-1.03.02-1.03.02-.71-.02-1.03-.02-1.03-.02-1.03-.02-1.03-.02-1.03-.02-1.03-.02-1.03-.02-1.03-.02-.71-.07-1.03-.07-1.03-.07-1.03-.07-1.03-.07-1.03-.07-1.03-.07-1.03-.07-1.03-.03-.45-.13-1.03-.13-1.03-.13-1.03-.13-1.03-.13-1.03-.13-1.03-.13-1.03-.12-1-.18-1.03-.18-1.03-.18-1.03-.18-1.03-.18-1.03-.18-1.03-.18-1.03-.06-.32-.25-1.02-.25-1.02-.25-1.02-.25-1.02-.25-1.02-.25-1.02-.13-.52-.33-1.02-.33-1.02-.33-1.02-.33-1.02-.33-1.02-.2-.62-.43-1.01-.43-1.01-.43-1.01-.43-1.01-.29-.68-.57-1-.57-1-.3-.52-.22-.39-.46-.8-.76-.97-.76-.97-.63-.8-1.07-.91-1.08-.91-1.59-.74-.53-.24-2.05-.22h-.72l-1.93.45-1.42.8-.41.23-1.02.92-.69.62-.78.97-.78.97-.03.03-.63.99-.63.99-.22.35-.52,1-.52,1-.32.62-.37.87"/>
        <path class="cls-1" d="M152.78,113.78l.88.95.58.63,1.08.91,1.08.91.18.15,1.35.83,1.16.71,1.73.67.95.37,2.14.34.68.11h.72l2.24-.17.75-.05,1.86-.59,1.23-.39,1.4-.81,1.4-.81.34-.2,1.05-.91,1.05-.91,1.05-.91.8-.96.8-.96.8-.96.68-.82.62-.99.62-.99.62-.99.62-.99.47-.75.48-1.01.48-1.01.48-1.01.48-1.01.48-1.01.32-.68.36-1.02.36-1.02.36-1.02.36-1.02.36-1.02.36-1.02.2-.56.27-1.02.27-1.02.27-1.02.27-1.02.27-1.02.27-1.02.27-1.02.09-.35.18-1.03.18-1.03.18-1.03.18-1.03.18-1.03.18-1.03.18-1.03.18-1.01.11-1.03.11-1.03.11-1.03.11-1.03.11-1.03.11-1.03.11-1.03.11-1.03.05-.46.04-1.03.04-1.03.04-1.03.04-1.03.04-1.03.04-1.03.04-1.03.04-1.03.02-.71-.04-1.03-.04-1.03-.04-1.03-.04-1.03-.04-1.03-.04-1.03-.04-1.03-.04-1.03-.02-.71-.11-1.03-.11-1.03-.11-1.03-.11-1.03-.11-1.03-.11-1.03-.11-1.03-.11-1.03-.05-.46-.18-1.03-.18-1.03-.18-1.03-.18-1.03-.18-1.03-.18-1.03-.18-1.03-.18-1.01-.27-1.02-.27-1.02-.27-1.02-.27-1.02-.27-1.02-.27-1.02-.27-1.02-.09-.35-.36-1.02-.36-1.02-.36-1.02-.36-1.02-.36-1.02-.36-1.02-.2-.56-.48-1.01-.48-1.01-.48-1.01-.48-1.01-.48-1.01-.32-.68-.62-.99-.62-.99-.62-.99-.62-.99-.47-.75-.8-.96-.8-.96-.8-.96-.68-.82-1.05-.91-1.05-.91-1.05-.91-1.4-.81-1.4-.81-.34-.2-1.86-.59-1.23-.39-2.24-.17-.75-.05h-.72l-2.14.34-.68.11-1.73.67-.95.37-1.35.83-1.16.71-1.08.91-1.08.91-.18.15-.88.95-.58.63"/>
      </g>
    </g>
  </g>
</svg>